<svg xmlns="http://www.w3.org/2000/svg" xmlns:xlink="http://www.w3.org/1999/xlink" viewBox="0 0 184.33 184.33"><defs><style>.cls-1,.cls-4{fill:none;}.cls-2{isolation:isolate;}.cls-3{fill:#fff;}.cls-4{stroke:#432349;stroke-miterlimit:10;stroke-width:8px;}.cls-5{clip-path:url(#clip-path);}.cls-6{fill:url(#linear-gradient);}.cls-7{mix-blend-mode:multiply;}.cls-8{clip-path:url(#clip-path-2);}.cls-9{clip-path:url(#clip-path-3);}.cls-10{fill:url(#linear-gradient-2);}.cls-11{clip-path:url(#clip-path-4);}.cls-12{fill:url(#linear-gradient-3);}</style><clipPath id="clip-path"><path class="cls-1" d="M44.2,77.25,38.52,82l39.17,46.42,18-13.33-30-35.9a15.23,15.23,0,0,0-10.37-5.43c-.47,0-.94-.06-1.4-.06a15.15,15.15,0,0,0-9.77,3.56"/></clipPath><linearGradient id="linear-gradient" x1="-3646.57" y1="2561.98" x2="-3645.57" y2="2561.98" gradientTransform="matrix(57.19, 0, 0, -57.19, 208594.39, 146626.68)" gradientUnits="userSpaceOnUse"><stop offset="0" stop-color="#fee500"/><stop offset="1" stop-color="#f47621"/></linearGradient><clipPath id="clip-path-2"><rect class="cls-1" x="56.27" y="102.15" width="39.01" height="19.14"/></clipPath><clipPath id="clip-path-3"><path class="cls-1" d="M65.55,113.83l-9.28-11c2.81,3.41,10.67,7,18.62,5.14a18.82,18.82,0,0,0,10-5.85l10.39,12.34c-8.42,9.32-21.73,9-29.73-.66"/></clipPath><linearGradient id="linear-gradient-2" x1="-3732.32" y1="2325.2" x2="-3731.32" y2="2325.2" gradientTransform="matrix(0, -22.31, -22.31, 0, 51951.6, -83150.6)" gradientUnits="userSpaceOnUse"><stop offset="0" stop-color="#f47621"/><stop offset="1" stop-color="#fff"/></linearGradient><clipPath id="clip-path-4"><path class="cls-1" d="M132.14,55.15c-.24.3-34,45.43-42.8,54.18-11,11-28.74-1.17-28.74-1.17L71,120.47c.64.8,6.32,7.92,8.72,10.31h0A14.61,14.61,0,0,0,90,134.87l.75,0a15.66,15.66,0,0,0,11.31-5.44l40.18-51a15.32,15.32,0,0,0-1.94-21.54l-6-4.5Z"/></clipPath><linearGradient id="linear-gradient-3" x1="-3667.95" y1="2548.5" x2="-3666.95" y2="2548.5" gradientTransform="matrix(85.22, 0, 0, -85.22, 312648.52, 217280.33)" gradientUnits="userSpaceOnUse"><stop offset="0" stop-color="#ee3324"/><stop offset="1" stop-color="#f47621"/></linearGradient></defs><g class="cls-2"><g id="Layer_2" data-name="Layer 2"><g id="Layer_1-2" data-name="Layer 1"><path class="cls-3" d="M92.17,11A81.17,81.17,0,1,1,11,92.17,81.17,81.17,0,0,1,92.17,11m0-11a92.17,92.17,0,1,0,92.16,92.17A92.28,92.28,0,0,0,92.17,0Z"/><circle class="cls-4" cx="92.17" cy="92.17" r="81.17" transform="translate(-13.46 168.54) rotate(-80.87)"/><g class="cls-5"><rect class="cls-6" x="38.52" y="73.69" width="57.19" height="54.73"/></g><g class="cls-7"><g class="cls-8"><g class="cls-9"><rect class="cls-10" x="53.75" y="92.4" width="44.04" height="41.16" transform="translate(-53.68 71.19) rotate(-38.26)"/></g></g></g><g class="cls-11"><rect class="cls-12" x="60.6" y="52.34" width="87.08" height="82.52"/></g></g></g></g></svg>